<svg xmlns="http://www.w3.org/2000/svg" viewBox="0 0 500 500"><g id="freepik--background-complete--inject-95"><rect y="382.4" width="500" height="0.25" style="fill:#ebebeb"></rect><rect x="416.78" y="398.49" width="33.12" height="0.25" style="fill:#ebebeb"></rect><rect x="322.53" y="401.21" width="8.69" height="0.25" style="fill:#ebebeb"></rect><rect x="396.59" y="389.21" width="19.19" height="0.25" style="fill:#ebebeb"></rect><rect x="52.46" y="390.89" width="43.19" height="0.25" style="fill:#ebebeb"></rect><rect x="104.56" y="390.89" width="6.33" height="0.25" style="fill:#ebebeb"></rect><rect x="131.47" y="395.11" width="93.68" height="0.25" style="fill:#ebebeb"></rect><path d="M237,337.8H43.91a5.71,5.71,0,0,1-5.7-5.71V60.66A5.71,5.71,0,0,1,43.91,55H237a5.71,5.71,0,0,1,5.71,5.71V332.09A5.71,5.71,0,0,1,237,337.8ZM43.91,55.2a5.46,5.46,0,0,0-5.45,5.46V332.09a5.46,5.46,0,0,0,5.45,5.46H237a5.47,5.47,0,0,0,5.46-5.46V60.66A5.47,5.47,0,0,0,237,55.2Z" style="fill:#ebebeb"></path><path d="M453.31,337.8H260.21a5.72,5.72,0,0,1-5.71-5.71V60.66A5.72,5.72,0,0,1,260.21,55h193.1A5.71,5.71,0,0,1,459,60.66V332.09A5.71,5.71,0,0,1,453.31,337.8ZM260.21,55.2a5.47,5.47,0,0,0-5.46,5.46V332.09a5.47,5.47,0,0,0,5.46,5.46h193.1a5.47,5.47,0,0,0,5.46-5.46V60.66a5.47,5.47,0,0,0-5.46-5.46Z" style="fill:#ebebeb"></path><polygon points="175.79 176.58 164.77 164.14 81.22 164.14 70.2 176.58 72.18 178.34 81.2 168.16 81.2 209.18 83.85 209.18 83.85 166.79 108.18 166.79 108.18 209.18 110.83 209.18 110.83 166.79 135.16 166.79 135.16 209.18 137.81 209.18 137.81 166.79 162.14 166.79 162.14 209.18 164.79 209.18 164.79 168.16 173.81 178.34 175.79 176.58" style="fill:#e0e0e0"></polygon><polygon points="428.94 176.58 417.92 164.14 334.37 164.14 323.35 176.58 325.33 178.34 334.35 168.16 334.35 209.18 337 209.18 337 166.79 361.33 166.79 361.33 209.18 363.98 209.18 363.98 166.79 388.31 166.79 388.31 209.18 390.96 209.18 390.96 166.79 415.29 166.79 415.29 209.18 417.94 209.18 417.94 168.16 426.96 178.34 428.94 176.58" style="fill:#e0e0e0"></polygon><path d="M320.33,201.52c0,61-29.09,113.13-70.14,134-41.05-20.91-70.13-73-70.13-134H66.43V381.4H433.57V201.52Z" style="fill:#e0e0e0"></path><path d="M320.33,201.52c0,79.44-49.32,143.84-110.16,143.84S100,281,100,201.52H66.43V381.4H353.52V201.52Z" style="fill:#ebebeb"></path></g><g id="freepik--Shadow--inject-95"><ellipse id="freepik--path--inject-95" cx="250" cy="416.24" rx="193.89" ry="11.32" style="fill:#f5f5f5"></ellipse></g><g id="freepik--Fence--inject-95"><rect x="95.03" y="319.39" width="5" height="82.35" style="fill:#263238"></rect><rect x="145.85" y="319.39" width="5" height="82.35" style="fill:#263238"></rect><rect x="196.68" y="319.39" width="5" height="82.35" style="fill:#263238"></rect><rect x="247.5" y="319.39" width="5" height="82.35" style="fill:#263238"></rect><rect x="298.32" y="319.39" width="5" height="82.35" style="fill:#263238"></rect><rect x="349.15" y="319.39" width="5" height="82.35" style="fill:#263238"></rect><rect x="399.97" y="319.39" width="5" height="82.22" style="fill:#263238"></rect><g style="opacity:0.4"><rect x="95.03" y="319.39" width="5" height="82.35" style="fill:#fff"></rect></g><g style="opacity:0.4"><rect x="145.85" y="319.39" width="5" height="82.35" style="fill:#fff"></rect></g><g style="opacity:0.4"><rect x="196.68" y="319.39" width="5" height="82.35" style="fill:#fff"></rect></g><g style="opacity:0.4"><rect x="247.5" y="319.39" width="5" height="82.35" style="fill:#fff"></rect></g><g style="opacity:0.4"><rect x="298.32" y="319.39" width="5" height="82.35" style="fill:#fff"></rect></g><g style="opacity:0.4"><rect x="349.15" y="319.39" width="5" height="82.35" style="fill:#fff"></rect></g><g style="opacity:0.4"><rect x="399.97" y="319.39" width="5" height="82.22" style="fill:#fff"></rect></g><polygon points="420.61 343.65 401.35 321.89 98.65 321.89 79.39 343.65 75.64 340.33 96.4 316.89 403.6 316.89 424.36 340.33 420.61 343.65" style="fill:#263238"></polygon><g style="opacity:0.7000000000000001"><polygon points="420.61 343.65 401.35 321.89 98.65 321.89 79.39 343.65 75.64 340.33 96.4 316.89 403.6 316.89 424.36 340.33 420.61 343.65" style="fill:#fff"></polygon></g><path d="M54.59,388.87H445.41a3.31,3.31,0,0,1,3.31,3.31v9.56a0,0,0,0,1,0,0H51.28a0,0,0,0,1,0,0v-9.56A3.31,3.31,0,0,1,54.59,388.87Z" style="fill:#263238"></path><path d="M448.72,392.18v9.56H51.28v-9.56a3.31,3.31,0,0,1,3.31-3.31H445.41A3.31,3.31,0,0,1,448.72,392.18Z" style="fill:#fff;opacity:0.7000000000000001"></path><rect x="94.98" y="388.87" width="41.72" height="12.87" style="opacity:0.2"></rect><rect x="184.42" y="388.87" width="41.72" height="12.87" style="opacity:0.2"></rect><rect x="273.86" y="388.87" width="41.72" height="12.87" style="opacity:0.2"></rect><rect x="363.3" y="388.87" width="41.72" height="12.87" style="opacity:0.2"></rect></g><g id="freepik--clap-effect--inject-95"><path d="M256.25,168.43s3.16-8.1,11.89-8.38,9.43,9.78,9.43,9.78a11.62,11.62,0,0,1,6.42-7.41s-4.76,2-7-1.79.46-12.14.46-12.14-2.82,7.52-7.45,7.32-7.06-7.32-7.06-7.32,2,6.71-2.27,10.67-7.76.89-7.76.89S256.6,162.56,256.25,168.43Z" style="fill:#407BFF"></path><path d="M256.25,168.43s3.16-8.1,11.89-8.38,9.43,9.78,9.43,9.78a11.62,11.62,0,0,1,6.42-7.41s-4.76,2-7-1.79.46-12.14.46-12.14-2.82,7.52-7.45,7.32-7.06-7.32-7.06-7.32,2,6.71-2.27,10.67-7.76.89-7.76.89S256.6,162.56,256.25,168.43Z" style="fill:#fff;opacity:0.7000000000000001"></path></g><g id="freepik--character-2--inject-95"><path d="M332.73,179.3s5.27-.54,6.59,4.33-3.56,6.79-.92,9.73,7.38-.89,10.55.56-.14,4.48,1.31,6.46,5.15-.92,5.15-.92,0,4.22-4,4.22c0,0,.16,5.65-6.2,4.75,0,0,2.9,1.51,5,.09,0,0-3.95,3.73-7.64,1.36,0,0-8.77,5.27-18,1.45s-14.51-9.43-18.31-18,1.68-13.44,1.05-16.73S332.73,179.3,332.73,179.3Z" style="fill:#407BFF"></path><path d="M332.73,179.3s5.27-.54,6.59,4.33-3.56,6.79-.92,9.73,7.38-.89,10.55.56-.14,4.48,1.31,6.46,5.15-.92,5.15-.92,0,4.22-4,4.22c0,0,.16,5.65-6.2,4.75,0,0,2.9,1.51,5,.09,0,0-3.95,3.73-7.64,1.36,0,0-8.77,5.27-18,1.45s-14.51-9.43-18.31-18,1.68-13.44,1.05-16.73S332.73,179.3,332.73,179.3Z" style="opacity:0.2"></path><path d="M340.69,215.37C344,221,347.64,227,351.14,232.51l-.61-.68a29.43,29.43,0,0,0,6.16,3.29c5.08,2.21,10.4,4.19,15.63,6.14l8,3a2.39,2.39,0,0,1-1.23,4.6,175.09,175.09,0,0,1-25.29-6.21c-3.21-1.18-6.2-2.08-9-4.34A108.83,108.83,0,0,1,332.25,220c-2.7-5.61,5.2-9.91,8.44-4.6Z" style="fill:#ce7a63"></path><path d="M349.8,227.55l-9,6.61-1.87,1.37-7.15-11.81-2-3.28L332.09,201C340.9,204.6,349.8,227.55,349.8,227.55Z" style="fill:#263238"></path><path d="M320.33,293.66c0,9-.07,17.73-.19,24.39,0,.65,0,1.32,0,2a32.8,32.8,0,0,1-1,6.35c-2.41,6.65-4.88,14.16-7.23,21.82-5.74,18.7-10.76,38.31-12.48,48.5-1.5.46-4.52,1.28-6.93-.13,0,0-1.23-26.93,3.61-51.57,1.7-8.68,4.15-17.07,7.67-23.9-14.5-53.15-5.59-67.93-5.59-67.93l22.08-6.64s0,5.58.07,13.86C320.34,269.5,320.37,281.86,320.33,293.66Z" style="fill:#ce7a63"></path><path d="M356.79,322.86c-.08.61-.15,1.11-.18,1.31-1.26,7-2.43,14.74-3.47,22.62-2.52,19.19-4.19,39-4.2,49.27a9.48,9.48,0,0,1-7,.37s-5.36-24.61-4.95-48.89a99.83,99.83,0,0,1,2.91-24,221.79,221.79,0,0,1-19.58-29.93c-9.72-18.4-8.6-26.18-8.6-26.18l8.57-7.08,9.2-7.61s17.38,40.53,26.47,63a.73.73,0,0,1,0,.12A14.75,14.75,0,0,1,356.79,322.86Z" style="fill:#ce7a63"></path><path d="M340.79,234.16l-1.87,1.37-7.15-11.81,3.59-6.85A32.6,32.6,0,0,1,340.79,234.16Z" style="opacity:0.30000000000000004"></path><path d="M343.9,283.42l-19,9.19-4.53,2.19h0l-23.28.53c-6.54-28.75,1.26-44.57,1.26-44.57l33.78,6.06Z" style="fill:#407BFF"></path><path d="M272.69,184.26l1.16-8-2.17-6.39-4.25,4,.06,3.62s-2.61,4.64.28,8Z" style="fill:#ce7a63"></path><path d="M340.22,215.18a95.38,95.38,0,0,1-1.73,12.92c-.89,5-1.89,10-3.46,17,.3,3.89,1.32,13.95,1.32,13.95-10.9,2.25-35.31-2.47-39.68-5.8,0,0,5.44-13,6.63-15.08a89.66,89.66,0,0,0,.16-11.33c-.11-2.66-.32-5.58-.63-8.81-.34-3.49-.8-7.36-1.4-11.67a7.45,7.45,0,0,1,7.64-8.72c1.27,0,2.62.12,4,.24a101.65,101.65,0,0,1,14.37,2c1.55.36,3.14.78,4.66,1.21C337.57,202.58,340.82,209.58,340.22,215.18Z" style="fill:#263238"></path><path d="M326.83,204.93c-8.39-6.94-12.85-7-13-7a5.21,5.21,0,0,0,1.35-1.66c1.48-2.75,1.65-7.32,1.42-11.13-.07-1.23-.19-2.38-.31-3.36l2.89,3.06,5.45,5.77c-.15.47-.29.94-.4,1.42-.73,3.08-.42,6.19,4,7.89C328.22,199.93,330.06,201.44,326.83,204.93Z" style="fill:#ce7a63"></path><path d="M324.65,190.62c-.15.47-.29.94-.4,1.42a11.71,11.71,0,0,1-9.05,4.24c1.48-2.75,1.65-7.32,1.42-11.13a9,9,0,0,1,2.58-.3Z" style="opacity:0.2"></path><path d="M308.25,171.36s-2.76,3.7,0,6.41,8-9.17,8-9.17S310.28,168,308.25,171.36Z" style="fill:#407BFF"></path><path d="M308.25,171.36s-2.76,3.7,0,6.41,8-9.17,8-9.17S310.28,168,308.25,171.36Z" style="opacity:0.2"></path><path d="M329.21,177c-.62,7.64-.72,10.88-4.62,14.93-5.87,6.09-15,4.16-16.66-3.4-1.48-6.8-.22-18.16,7.24-21.44A9.82,9.82,0,0,1,329.21,177Z" style="fill:#ce7a63"></path><path d="M319.77,179.28c0,.64-.38,1.17-.79,1.19s-.72-.5-.7-1.15.38-1.17.79-1.19S319.79,178.63,319.77,179.28Z" style="fill:#263238"></path><path d="M311.79,179.28c0,.64-.38,1.18-.79,1.19s-.72-.5-.69-1.14.37-1.18.78-1.19S311.81,178.64,311.79,179.28Z" style="fill:#263238"></path><path d="M311.27,178.17l-1.49-.4S310.51,179,311.27,178.17Z" style="fill:#263238"></path><path d="M314.17,180.62a19.11,19.11,0,0,1-2.39,4.18,2.56,2.56,0,0,0,2.22.36Z" style="fill:#ba4d3c"></path><path d="M317.51,187.43a5.81,5.81,0,0,1-1.05.12.16.16,0,0,1-.18-.18.21.21,0,0,1,.19-.2,5.34,5.34,0,0,0,4.12-2.12.18.18,0,0,1,.25-.06.18.18,0,0,1,.05.26A5.66,5.66,0,0,1,317.51,187.43Z" style="fill:#263238"></path><path d="M321.09,175.2a.31.31,0,0,1-.27-.08,2.76,2.76,0,0,0-2.52-.68.34.34,0,0,1-.44-.25.4.4,0,0,1,.27-.47,3.44,3.44,0,0,1,3.2.82.38.38,0,0,1,0,.53A.36.36,0,0,1,321.09,175.2Z" style="fill:#263238"></path><path d="M308.68,175.15a.36.36,0,0,1-.27,0,.38.38,0,0,1-.1-.52,3.9,3.9,0,0,1,2.9-2,.34.34,0,0,1,.36.35.42.42,0,0,1-.37.41,3.13,3.13,0,0,0-2.28,1.57A.4.4,0,0,1,308.68,175.15Z" style="fill:#263238"></path><path d="M319.25,178.16l-1.49-.39S318.49,179,319.25,178.16Z" style="fill:#263238"></path><path d="M323.62,171.6s-.26,9.4,4.62,12.17,4.49-4.47,4.49-4.47A14.28,14.28,0,0,0,323.62,171.6Z" style="fill:#407BFF"></path><path d="M323.62,171.6s-.26,9.4,4.62,12.17,4.49-4.47,4.49-4.47A14.28,14.28,0,0,0,323.62,171.6Z" style="opacity:0.2"></path><path d="M331.58,183.22a6.15,6.15,0,0,1-3.68,2.93c-2,.52-2.89-1.46-2.22-3.5.6-1.83,2.37-4.31,4.34-3.93S332.6,181.42,331.58,183.22Z" style="fill:#ce7a63"></path><path d="M332.72,179.3a24.11,24.11,0,0,0-5.8-4.44c-9.61-5.3-20.59-3.26-20.59-3.26s3.94-6.7,4.94-7.76,5.09-1.72,8-1.83a11.61,11.61,0,0,1,4.5.79c3.49,1.32,6.28,4,7.13,5.67C332.06,170.85,332.72,179.3,332.72,179.3Z" style="fill:#263238"></path><path d="M326.92,174.86c-9.61-5.3-20.59-3.26-20.59-3.26s3.94-6.7,4.94-7.76,5.09-1.72,8-1.83a11.61,11.61,0,0,1,4.5.79c1.23.87,2.32,1.78,2.46,2.34C326.54,166.47,326.92,174.86,326.92,174.86Z" style="fill:#fff;opacity:0.5"></path><path d="M326.92,174.86a41.41,41.41,0,0,0-17.14-10.35c-6.13-1.72-11.08,0-11.34,3.56s8.58,6.34,8.58,6.34S311.89,168.41,326.92,174.86Z" style="fill:#263238"></path><path d="M326.92,174.86a41.41,41.41,0,0,0-17.14-10.35c-6.13-1.72-11.08,0-11.34,3.56s8.58,6.34,8.58,6.34S311.89,168.41,326.92,174.86Z" style="opacity:0.2"></path><path d="M380.4,244l7.47,3.18,4.33,5.17-5.67,1.53-3-1.94s-5.33-.17-6.71-4.39Z" style="fill:#ce7a63"></path><path d="M296.07,345l15.8,3.2c-5.74,18.7-10.76,38.31-12.48,48.5-1.5.46-4.52,1.28-6.93-.13C292.46,396.58,291.23,369.65,296.07,345Z" style="fill:#407BFF"></path><path d="M311.87,348.21c-.16.52-.32,1.05-.49,1.58l-.87,2.9c-.23.79-.47,1.58-.69,2.37s-.39,1.29-.58,1.94l-1,3.33-.27,1c-4,14.24-7.3,27.59-8.62,35.41-1.5.46-4.52,1.28-6.93-.13a264.11,264.11,0,0,1,1.45-37.42l.12-1c.13-1.13.28-2.27.43-3.41.09-.66.19-1.32.28-2s.25-1.61.38-2.42c.16-1,.32-2,.5-3,.14-.79.29-1.59.45-2.38Z" style="fill:#fff;opacity:0.7000000000000001"></path><path d="M295.62,347.39l15.76,2.4-.87,2.9-15.39-2.34C295.28,349.36,295.44,348.38,295.62,347.39Z" style="fill:#407BFF"></path><path d="M294.74,352.77l15.08,2.29c-.2.65-.39,1.29-.58,1.94l-14.78-2.25C294.55,354.09,294.65,353.43,294.74,352.77Z" style="fill:#407BFF"></path><path d="M294,358.16l14.25,2.17-.27,1-14.1-2.14Z" style="fill:#407BFF"></path><path d="M353.14,346.79c-2.52,19.19-4.19,39-4.2,49.27a9.48,9.48,0,0,1-7,.37s-5.36-24.61-4.95-48.89Z" style="fill:#407BFF"></path><path d="M353.14,346.79c-.11.81-.21,1.62-.31,2.43l-.39,3c-.09.84-.2,1.68-.29,2.51l-.24,2c-.13,1.18-.27,2.35-.39,3.51,0,.34-.08.68-.11,1h0c-1.52,14.1-2.45,27.12-2.46,34.78a9.48,9.48,0,0,1-7,.37,256.66,256.66,0,0,1-4.6-34.59c0-.33,0-.66-.05-1-.07-1.15-.13-2.32-.17-3.5,0-.66-.05-1.33-.07-2,0-.83-.05-1.66-.06-2.5,0-1,0-2,0-3,0-.77,0-1.54,0-2.31Z" style="fill:#fff;opacity:0.7000000000000001"></path><path d="M352.83,349.22l-.39,3-15.44.61c0-1,0-2,0-3Z" style="fill:#407BFF"></path><path d="M352.15,354.75l-.24,2-14.78.59c0-.66-.05-1.33-.07-2Z" style="fill:#407BFF"></path><path d="M351.52,360.27c0,.34-.08.68-.11,1h0l-14,.56c0-.33,0-.66-.05-1Z" style="fill:#407BFF"></path><path d="M307.22,405.26c-5.92,0-6.7-.09-10-.21-2.85-.1-3.53.26-5.81.21-1.92,0-1.85-1.87-1.26-4,.3-1.06.75-3.29,1.16-5l8.67-.63c1.22,2.33,4,5.65,7.31,6.1S309.58,405.26,307.22,405.26Z" style="fill:#407BFF"></path><path d="M309.07,197.58s10.21,9.2,17.85,9.2,5.17-5.76,5.17-5.76A104.12,104.12,0,0,0,309.07,197.58Z" style="fill:#ce7a63"></path><path d="M303.48,208.05c-9.2,3.3-18.65,5.58-28.49,5.31-10.89-1.3-8.16-22.38-7-30a2.4,2.4,0,0,1,4.75.24c.3,4.33.66,8.82,1.32,13.09.48,2.82.94,5.84,2.26,8.12.49.68.35.11-.33-.05l-.91-.11a56.28,56.28,0,0,0,6.19-.68,134.88,134.88,0,0,0,19-5c5.95-1.78,9,6.66,3.23,9.05Z" style="fill:#ce7a63"></path><path d="M309.07,197.58s-2-.3-7.26.69S283.34,203,283.34,203l2.77,15.24h20.22Z" style="fill:#263238"></path><path d="M324.87,292.61l-4.53,2.19h0v-1.14l0-11.52A42.22,42.22,0,0,1,324.87,292.61Z" style="opacity:0.2"></path><polygon points="319.67 293.44 344.08 281.22 345.07 284.49 321.08 296.44 319.67 293.44" style="fill:#407BFF"></polygon><polygon points="345.07 284.49 325.4 294.3 321.08 296.45 319.67 293.45 324.23 291.16 344.08 281.22 345.07 284.49" style="fill:#fff;opacity:0.30000000000000004"></polygon><polygon points="325.4 294.3 321.08 296.45 319.67 293.45 324.23 291.16 325.4 294.3" style="opacity:0.2"></polygon><polygon points="295.52 293.12 320.49 292.77 320.73 296.48 296.2 296.77 295.52 293.12" style="fill:#407BFF"></polygon><polygon points="295.52 293.12 320.49 292.77 320.73 296.48 296.2 296.77 295.52 293.12" style="fill:#fff;opacity:0.30000000000000004"></polygon><path d="M333.5,215.33c0,1.95-.19,4.2-.38,6.53l-.15,1.67c-.11,1.15-.23,2.3-.35,3.43-.05.52-.11,1-.17,1.52-.11,1-.22,2-.33,2.86-.07.54-.13,1.07-.19,1.57-.11.86-.22,1.66-.31,2.37-.16,1.23-.3,2.19-.38,2.79h0c-.06.44-.1.68-.1.68v8.44l-.87-.1-3.54-.41-3-.35L321,246l-3.78-.44-3-.35-2.36-.27.66-2.48,1.41-5.3,0-1.77,0-2.19,0-3.34,0-2.53.07-4.84,0-2.62.09-7h0v-1l1.68.14,3.78.31,2,.16,3.54.29,2.37.19,4.11.33,1.9.16C333.53,214,333.53,214.66,333.5,215.33Z" style="fill:#fff;opacity:0.30000000000000004"></path><polygon points="321.3 226.26 314.16 212.85 314.16 212.84 314.17 211.86 315.85 212 321.3 226.26" style="fill:#fff;opacity:0.30000000000000004"></polygon><polygon points="322.65 224.94 319.63 212.31 321.6 212.47 322.65 224.94" style="fill:#fff;opacity:0.30000000000000004"></polygon><polygon points="327.51 212.95 324.65 223.21 325.14 212.76 327.51 212.95" style="fill:#fff;opacity:0.30000000000000004"></polygon><path d="M333.5,215.33l-6.87,8,5-10.08,1.9.16C333.53,214,333.53,214.66,333.5,215.33Z" style="fill:#fff;opacity:0.30000000000000004"></path><path d="M333.12,221.86l-.15,1.67-6.34,2.34Z" style="fill:#fff;opacity:0.30000000000000004"></path><path d="M332.62,227c-.05.52-.11,1-.17,1.52l-5.82-.63Z" style="fill:#fff;opacity:0.30000000000000004"></path><path d="M332.12,231.34c-.07.54-.13,1.07-.19,1.57l-5.77-2.79Z" style="fill:#fff;opacity:0.30000000000000004"></path><path d="M331.62,235.28c-.16,1.23-.3,2.19-.38,2.79l-5.67-6.76Z" style="fill:#fff;opacity:0.30000000000000004"></path><polygon points="331.14 242.16 331.14 247.2 330.27 247.1 324.65 233.19 331.14 242.16" style="fill:#fff;opacity:0.30000000000000004"></polygon><polygon points="326.73 246.69 323.69 246.34 323.69 234.47 326.73 246.69" style="fill:#fff;opacity:0.30000000000000004"></polygon><polygon points="322.65 234.47 320.96 246.02 317.18 245.58 322.65 234.47" style="fill:#fff;opacity:0.30000000000000004"></polygon><polygon points="321.86 233.58 314.14 245.23 311.78 244.96 312.44 242.48 321.86 233.58" style="fill:#fff;opacity:0.30000000000000004"></polygon><polygon points="321.3 231.31 313.87 235.41 313.9 233.22 321.3 231.31" style="fill:#fff;opacity:0.30000000000000004"></polygon><polygon points="321.16 229.53 313.94 229.88 313.97 227.35 321.16 229.53" style="fill:#fff;opacity:0.30000000000000004"></polygon><path d="M320.48,226.86,314,222.51l0-2.62C317.19,223.26,320.48,226.86,320.48,226.86Z" style="fill:#fff;opacity:0.30000000000000004"></path><path d="M315.47,239.64a.49.49,0,0,1-.45-.29.49.49,0,0,1,.25-.66l2.55-1.16,9.45-16.27.48-2.68a.5.5,0,0,1,1,.18l-.5,2.77-.06.16-9.58,16.48a.56.56,0,0,1-.22.21l-2.7,1.22A.52.52,0,0,1,315.47,239.64Z" style="fill:#fff"></path><path d="M328.61,225.43a1.36,1.36,0,1,1,1.36-1.36A1.36,1.36,0,0,1,328.61,225.43Zm0-1.72a.36.36,0,1,0,0,.72.36.36,0,0,0,0-.72Z" style="fill:#fff"></path><path d="M320.3,239.64a1.37,1.37,0,1,1,1.36-1.36A1.37,1.37,0,0,1,320.3,239.64Zm0-1.73a.38.38,0,0,0-.37.37.37.37,0,0,0,.37.36.36.36,0,0,0,.36-.36A.37.37,0,0,0,320.3,237.91Z" style="fill:#fff"></path><path d="M303.46,226.79c-.11-2.66-.32-5.58-.63-8.81,0,0,4.27-2.42,4.55-6.12C307.38,211.86,308.18,222,303.46,226.79Z" style="opacity:0.30000000000000004"></path><path d="M283.67,410.73h-2a3.54,3.54,0,0,0,0,7h2a3.54,3.54,0,0,0,0-7Z" style="fill:#407BFF"></path><path d="M283.67,410.73h-2a3.54,3.54,0,0,0,0,7h2a3.54,3.54,0,0,0,0-7Z" style="opacity:0.2"></path><path d="M286.74,414.24a3.09,3.09,0,1,1-3.07-3.51A3.31,3.31,0,0,1,286.74,414.24Z" style="fill:#fff;opacity:0.2"></path><path d="M285.88,414.24a1.35,1.35,0,1,1-1.34-1.54A1.45,1.45,0,0,1,285.88,414.24Z" style="opacity:0.5"></path><polygon points="297.52 408.31 285.18 408.31 284.18 407.12 298.52 407.12 297.52 408.31"></polygon><rect x="288.46" y="408.11" width="5.79" height="3.66"></rect><polygon points="284.18 413.13 288.46 409.42 294.25 409.42 298.52 412.72 298.52 414.91 293.63 413.08 288.93 413.08 284.54 414.91 284.18 414.24 284.18 413.13"></polygon><path d="M301.87,410.73h-2a3.54,3.54,0,0,0,0,7h2a3.54,3.54,0,0,0,0-7Z" style="fill:#407BFF"></path><path d="M301.87,410.73h-2a3.54,3.54,0,0,0,0,7h2a3.54,3.54,0,0,0,0-7Z" style="opacity:0.2"></path><path d="M304.94,414.24a3.1,3.1,0,1,1-3.07-3.51A3.31,3.31,0,0,1,304.94,414.24Z" style="fill:#fff;opacity:0.2"></path><path d="M304.07,414.24a1.35,1.35,0,1,1-1.33-1.54A1.44,1.44,0,0,1,304.07,414.24Z" style="opacity:0.5"></path><path d="M343.71,410.73h-2a3.54,3.54,0,0,0,0,7h2a3.54,3.54,0,0,0,0-7Z" style="fill:#407BFF"></path><path d="M343.71,410.73h-2a3.54,3.54,0,0,0,0,7h2a3.54,3.54,0,0,0,0-7Z" style="opacity:0.2"></path><path d="M346.77,414.24a3.09,3.09,0,1,1-3.06-3.51A3.31,3.31,0,0,1,346.77,414.24Z" style="fill:#fff;opacity:0.2"></path><path d="M345.91,414.24a1.35,1.35,0,1,1-1.34-1.54A1.45,1.45,0,0,1,345.91,414.24Z" style="opacity:0.5"></path><polygon points="357.56 408.31 345.22 408.31 344.22 407.12 358.56 407.12 357.56 408.31"></polygon><rect x="348.5" y="408.11" width="5.79" height="3.66"></rect><polygon points="344.22 413.13 348.5 409.42 354.28 409.42 358.56 412.72 358.56 414.91 353.66 413.08 348.97 413.08 344.57 414.91 344.22 414.24 344.22 413.13"></polygon><path d="M361.91,410.73h-2a3.54,3.54,0,0,0,0,7h2a3.54,3.54,0,0,0,0-7Z" style="fill:#407BFF"></path><path d="M361.91,410.73h-2a3.54,3.54,0,0,0,0,7h2a3.54,3.54,0,0,0,0-7Z" style="opacity:0.2"></path><path d="M365,414.24a3.09,3.09,0,1,1-3.06-3.51A3.31,3.31,0,0,1,365,414.24Z" style="fill:#fff;opacity:0.2"></path><path d="M364.11,414.24a1.35,1.35,0,1,1-1.34-1.54A1.45,1.45,0,0,1,364.11,414.24Z" style="opacity:0.5"></path><path d="M377.76,401.06l0,0h0l-.94-1.88h0c-.48-1.12-2.16-1.79-5-1.79-6,0-15.1,2.94-21.35,6.76-.53.33-1,.65-1.51,1H294.36c-6.21-4.29-16.35-7.74-22.85-7.74h0c-2.86,0-4.54.67-5,1.78h0l-.94,1.87v0l0,0h0c-.4.8-.16,1.85.74,3.05a15.66,15.66,0,0,0,3.48,3.19l.44.31H373.1l.41-.29,0,0a15.66,15.66,0,0,0,3.48-3.19C377.92,402.92,378.16,401.87,377.76,401.06Z" style="fill:#263238"></path><path d="M377.76,401.06l0,0h0l-.94-1.88h0c-.48-1.12-2.16-1.79-5-1.79-6,0-15.1,2.94-21.35,6.76-.53.33-1,.65-1.51,1H294.36c-6.21-4.29-16.35-7.74-22.85-7.74h0c-2.86,0-4.54.67-5,1.78h0l-.94,1.87v0l0,0h0c-.4.8-.16,1.85.74,3.05a15.66,15.66,0,0,0,3.48,3.19l.44.31H373.1l.41-.29,0,0a15.66,15.66,0,0,0,3.48-3.19C377.92,402.92,378.16,401.87,377.76,401.06Z" style="fill:#fff;opacity:0.2"></path><path d="M372.79,405.11H348.9c6.21-4.29,16.36-7.75,22.87-7.75S378.7,400.82,372.79,405.11Z" style="fill:#263238"></path><path d="M294.08,407.62h-23.9l-.44-.31a15.66,15.66,0,0,1-3.48-3.19c-2.1-2.8-.64-4.76,4.25-4.76s11.86,2,17.65,4.76a37.82,37.82,0,0,1,5.48,3.19Z" style="fill:#407BFF"></path><path d="M357,405.26c-5.92,0-6.7-.09-10-.21-2.85-.1-3.53.26-5.82.21-1.91,0-1.84-1.87-1.25-4,.3-1.06.75-3.29,1.16-5l8.67-.63c1.22,2.33,4,5.65,7.31,6.1S359.37,405.26,357,405.26Z" style="fill:#407BFF"></path></g><g id="freepik--character-1--inject-95"><path d="M163.86,195.39c-8.79,3.18-18,6.57-26.25,11-3.84,2.32-7.43,5.53-11,8.45l-11.23,9.56-3.9-3.62a138.5,138.5,0,0,1,17.6-20c4.93-4.33,11.35-7.39,17.1-10.1a130.89,130.89,0,0,1,14.3-5.52l3.33,10.22Z" style="fill:#e9b376"></path><path d="M178,179.12,167.43,201l-6.49,1.39-10.26,2.21-8.33,1.79-4.51-13.23S164.77,179,178,179.12Z" style="fill:#407BFF"></path><path d="M160.94,202.42l-10.26,2.21c2.82-6.23,10.79-9.59,10.79-9.59C162.54,197.35,162.12,200,160.94,202.42Z" style="opacity:0.2"></path><path d="M183.36,327.83c-13-38-30.75-55.35-31.62-75.94l31.32,2s15.58,53.32,21,78.17,16.34,65.52,16.34,65.52l-8.51,4.23S188.68,356.85,183.36,327.83Z" style="fill:#ebb376"></path><path d="M219.28,396.32H209.6a.71.71,0,0,0-.68.55L207.35,404a1.18,1.18,0,0,0,.91,1.39,1.15,1.15,0,0,0,.26,0c3.13-.05,5.41-.24,9.34-.24,2.42,0,9.72.25,13.07.25s3.78-3.3,2.41-3.61c-6.14-1.34-10.76-3.19-12.72-4.95A1.92,1.92,0,0,0,219.28,396.32Z" style="fill:#263238"></path><path d="M150.09,238.25s-8.42,15.48-2.72,29.72c1.13,2.82,7.71,11.9,7.71,11.9l24.59,52.18,25.13-7.19s-10.5-56.19-15.24-71l.74-8.42Z" style="fill:#263238"></path><path d="M204.8,324.86,186.72,330l-7.05,2-24.59-52.18s-6.58-9.08-7.71-11.9c-.31-.77-.58-1.55-.81-2.32-4-13.55,3.54-27.4,3.54-27.4l40.21,7.21-.75,8.42c1.45,4.51,3.43,12.88,5.49,22.33C199.73,297.72,204.8,324.86,204.8,324.86Z" style="fill:#fff;opacity:0.2"></path><path d="M195.05,276.21c-.93,14.82-3.14,35-8.33,53.82l-7.05,2-24.59-52.18s-6.58-9.08-7.71-11.9c-.31-.77-.58-1.55-.81-2.32,0,0,2.18,4.87,9.1,7.46,8.69,3.25,33.9-10.22,33.9-10.22v-9C191,258.39,193,266.76,195.05,276.21Z" style="opacity:0.2"></path><path d="M154.86,319.21c-3,4-6.2,8.2-9.86,12.51C122.77,351.11,96,394,96,394l8,5.15s29.33-30.08,48-47.5c4.77-4.46,10.83-10.46,17.19-16.91C170,333.91,158.13,314.74,154.86,319.21Z" style="fill:#ebb376"></path><path d="M106.08,397.5l-7.29-6.36a.71.71,0,0,0-.88,0l-5.84,4.31a1.18,1.18,0,0,0-.23,1.65,1.07,1.07,0,0,0,.18.19c2.39,2,4.24,3.37,7.2,5.95,1.82,1.59,7.16,6.58,9.68,8.78s5,0,4.19-1.14c-3.75-5-6-9.47-6.34-12.09A1.9,1.9,0,0,0,106.08,397.5Z" style="fill:#263238"></path><path d="M189.56,262.89s-3.72,49.5-17.75,75l-26.42-8.31s6.45-46.63,6.35-59.07S189.56,262.89,189.56,262.89Z" style="fill:#263238"></path><path d="M189.56,262.89s-3.72,49.5-17.75,75l-26.42-8.31s6.45-46.63,6.35-59.07S189.56,262.89,189.56,262.89Z" style="fill:#fff;opacity:0.2"></path><path d="M216.46,164.9c-.08.61.19,1.15.59,1.21s.79-.41.87-1-.18-1.16-.58-1.21S216.54,164.28,216.46,164.9Z" style="fill:#263238"></path><path d="M216.59,166.05a22.15,22.15,0,0,0,2.26,5.64,3.55,3.55,0,0,1-3,.17Z" style="fill:#de5753"></path><path d="M214.65,161.19a.37.37,0,0,1-.2-.17.37.37,0,0,1,.15-.5,3.62,3.62,0,0,1,3.32-.14.36.36,0,1,1-.35.64h0a2.93,2.93,0,0,0-2.63.14A.33.33,0,0,1,214.65,161.19Z" style="fill:#263238"></path><path d="M200.6,166.59c-2.73,5-8.44,13.71-13.86,14.1,0,0-2.45,5.39,5.63,12,8.88,7.31,7.87-.92,7.87-.92-3.89-5.14-.81-8.64,2.82-11.32Z" style="fill:#ebb376"></path><path d="M196.1,161c-.51,7.62-1.19,12.05,2.13,16.42,5,6.58,14.76,4.32,17.54-3,2.5-6.59,2.91-17.94-4.1-21.9A10.41,10.41,0,0,0,196.1,161Z" style="fill:#ebb376"></path><path d="M195.43,173.42c2.38,2.72,15.14.73,15.85-8.63,0,0,5.82-3.56,7.22-9.18s-1.65-9-6-9.19c-3.88-.16-4.43,1.8-4.43,1.8s-17.31-3.72-16.07,4.26C182.67,157.55,192.44,170,195.43,173.42Z" style="fill:#263238"></path><path d="M207.88,165.29a8.63,8.63,0,0,0,1.46,5.35c1.41,2.06,3.3,1.15,3.9-1,.53-2,.45-5.42-1.45-6.7S208.05,163,207.88,165.29Z" style="fill:#ebb376"></path><path d="M166.34,189.65c-4,3.41-6.24,6.17-6.24,11.64l.22.71a29.18,29.18,0,0,0,13.26-6.8c.42-.37.81-.74,1.19-1.11Z" style="opacity:0.2"></path><path d="M265,177.62,266,175l-9.57-1.6s-1.3,4.56,1.17,7.79l2.67-.19A5.47,5.47,0,0,0,265,177.62Z" style="fill:#ebb376"></path><polygon points="268.78 166.8 260.16 167.03 256.47 173.42 266.04 175.02 268.78 166.8" style="fill:#ebb376"></polygon><path d="M114.72,225.65l-3.48,2.9-4.61-8.94s4.1-2.73,8.07-1.31l1,4.28A3,3,0,0,1,114.72,225.65Z" style="fill:#ebb376"></path><polygon points="103.98 233.84 101.49 225.26 106.63 219.61 111.24 228.55 103.98 233.84" style="fill:#ebb376"></polygon><path d="M218.52,184.91c-2.56,4-4.92,8-7.09,11.91q-1.23,2.22-2.38,4.43-2.13,4.08-4,8c-1,2.15-2,4.27-2.89,6.34a161.64,161.64,0,0,0-10.29,32.57s-21.16,5.93-51.83,4.73c14.56-56.09,27.54-70.45,27.54-70.45s.76-3,7.69-3.43c5.25-.31,23.13,3.52,28.81,3.88A114,114,0,0,1,218.52,184.91Z" style="fill:#407BFF"></path><g style="opacity:0.7000000000000001"><path d="M207.88,203.53c-2.11,4.15-4,8.2-5.72,12.09a161.64,161.64,0,0,0-10.29,32.57s-21.16,5.93-51.83,4.73c8.62-33.22,16.69-51.81,21.84-61.44a47.61,47.61,0,0,1,21.83-11.67c4.3.63,9.28,1.51,13.43,2.18,1.37,1,3.1,9.82,10.72,21.31A.44.44,0,0,1,207.88,203.53Z" style="fill:#fff"></path></g><path d="M183.51,179.79s4.83-2.84,19.55,3C203.06,182.83,186.43,181.94,183.51,179.79Z" style="fill:#407BFF"></path><path d="M211.43,196.82q-1.23,2.22-2.38,4.43-2.13,4.08-4,8c-.5-7.68,3.53-15.4,3.53-15.4A6,6,0,0,1,211.43,196.82Z" style="opacity:0.2"></path><path d="M221.52,187.07c5.27,5.63,15.14,15.49,23,14.45,1.95-1.28,4.3-5.5,5.85-8.34,2.41-4.51,4.64-9.37,6.78-14.16l5.1,1.53c-1.7,8.25-5.94,26.81-14.6,30.14-12,3.69-23.6-5.62-31.43-13.43-1.06-1.09-2-2.06-3-3.28l8.23-6.91Z" style="fill:#e9b376"></path><path d="M218.52,184.91a11.64,11.64,0,0,1,5.72,2.43,139.92,139.92,0,0,0,17.92,13.77l-7.37,12-26.93-9.81S206.6,182.56,218.52,184.91Z" style="fill:#407BFF"></path><path d="M169.6,410.73h-2a3.54,3.54,0,0,0,0,7h2a3.54,3.54,0,0,0,0-7Z" style="fill:#407BFF"></path><path d="M169.6,410.73h-2a3.54,3.54,0,0,0,0,7h2a3.54,3.54,0,0,0,0-7Z" style="fill:#fff;opacity:0.4"></path><path d="M172.67,414.24a3.09,3.09,0,1,1-3.07-3.51A3.31,3.31,0,0,1,172.67,414.24Z" style="fill:#fff;opacity:0.2"></path><path d="M171.81,414.24a1.35,1.35,0,1,1-1.34-1.54A1.45,1.45,0,0,1,171.81,414.24Z" style="opacity:0.5"></path><polygon points="183.45 408.31 171.11 408.31 170.11 407.12 184.46 407.12 183.45 408.31"></polygon><rect x="174.39" y="408.11" width="5.79" height="3.66"></rect><polygon points="170.11 413.13 174.39 409.42 180.18 409.42 184.46 412.72 184.46 414.91 179.56 413.08 174.86 413.08 170.47 414.91 170.11 414.24 170.11 413.13"></polygon><path d="M187.8,410.73h-2a3.54,3.54,0,0,0,0,7h2a3.54,3.54,0,0,0,0-7Z" style="fill:#407BFF"></path><path d="M187.8,410.73h-2a3.54,3.54,0,0,0,0,7h2a3.54,3.54,0,0,0,0-7Z" style="fill:#fff;opacity:0.4"></path><path d="M190.87,414.24a3.1,3.1,0,1,1-3.07-3.51A3.31,3.31,0,0,1,190.87,414.24Z" style="fill:#fff;opacity:0.2"></path><path d="M190,414.24a1.35,1.35,0,1,1-1.34-1.54A1.45,1.45,0,0,1,190,414.24Z" style="opacity:0.5"></path><path d="M229.64,410.73h-2a3.54,3.54,0,0,0,0,7h2a3.54,3.54,0,0,0,0-7Z" style="fill:#407BFF"></path><path d="M229.64,410.73h-2a3.54,3.54,0,0,0,0,7h2a3.54,3.54,0,0,0,0-7Z" style="fill:#fff;opacity:0.4"></path><path d="M232.7,414.24a3.09,3.09,0,1,1-3.06-3.51A3.31,3.31,0,0,1,232.7,414.24Z" style="fill:#fff;opacity:0.2"></path><path d="M231.84,414.24a1.35,1.35,0,1,1-1.33-1.54A1.44,1.44,0,0,1,231.84,414.24Z" style="opacity:0.5"></path><polygon points="243.49 408.31 231.15 408.31 230.15 407.12 244.49 407.12 243.49 408.31"></polygon><rect x="234.43" y="408.11" width="5.79" height="3.66"></rect><polygon points="230.15 413.13 234.43 409.42 240.21 409.42 244.49 412.72 244.49 414.91 239.59 413.08 234.9 413.08 230.51 414.91 230.15 414.24 230.15 413.13"></polygon><path d="M247.84,410.73h-2a3.54,3.54,0,0,0,0,7h2a3.54,3.54,0,0,0,0-7Z" style="fill:#407BFF"></path><path d="M247.84,410.73h-2a3.54,3.54,0,0,0,0,7h2a3.54,3.54,0,0,0,0-7Z" style="fill:#fff;opacity:0.4"></path><path d="M250.9,414.24a3.09,3.09,0,1,1-3.06-3.51A3.31,3.31,0,0,1,250.9,414.24Z" style="fill:#fff;opacity:0.2"></path><path d="M250,414.24a1.35,1.35,0,1,1-1.34-1.54A1.45,1.45,0,0,1,250,414.24Z" style="opacity:0.5"></path><path d="M263.69,401.06l0,0h0l-.94-1.88h0c-.48-1.12-2.16-1.79-5-1.79-6,0-15.1,2.94-21.35,6.76-.53.33-1,.65-1.51,1H180.29c-6.21-4.29-16.34-7.74-22.85-7.74h0c-2.86,0-4.54.67-5,1.78h0l-.94,1.87v0l0,0h0c-.4.8-.16,1.85.74,3.05a15.66,15.66,0,0,0,3.48,3.19l.44.31H259l.41-.29,0,0a15.66,15.66,0,0,0,3.48-3.19C263.85,402.92,264.09,401.87,263.69,401.06Z" style="fill:#407BFF"></path><path d="M263.69,401.06l0,0h0l-.94-1.88h0c-.48-1.12-2.16-1.79-5-1.79-6,0-15.1,2.94-21.35,6.76-.53.33-1,.65-1.51,1H180.29c-6.21-4.29-16.34-7.74-22.85-7.74h0c-2.86,0-4.54.67-5,1.78h0l-.94,1.87v0l0,0h0c-.4.8-.16,1.85.74,3.05a15.66,15.66,0,0,0,3.48,3.19l.44.31H259l.41-.29,0,0a15.66,15.66,0,0,0,3.48-3.19C263.85,402.92,264.09,401.87,263.69,401.06Z" style="fill:#fff;opacity:0.2"></path><path d="M258.72,405.11H234.83c6.21-4.29,16.36-7.75,22.87-7.75S264.63,400.82,258.72,405.11Z" style="fill:#263238"></path><path d="M180,407.62h-23.9l-.44-.31a15.66,15.66,0,0,1-3.48-3.19c-2.1-2.8-.64-4.76,4.25-4.76s11.86,2,17.65,4.76a37.82,37.82,0,0,1,5.48,3.19Z" style="opacity:0.5"></path></g></svg>
